<?xml version="1.0" encoding="utf-8"?>

<!DOCTYPE svg PUBLIC "-//W3C//DTD SVG 1.1//EN" "http://www.w3.org/Graphics/SVG/1.1/DTD/svg11.dtd">
<svg version="1.1" id="Layer_1" xmlns="http://www.w3.org/2000/svg" xmlns:xlink="http://www.w3.org/1999/xlink" x="0px" y="0px"
	 viewBox="0 0 1801.947 1669.422" enable-background="new 0 0 1801.947 1669.422" xml:space="preserve">
<g>
	<path d="M1752.559,1175.213c-22.667-36.426-28.999-50.23-44.523-70.891c-54.109-72.013-40.282-64.39-116.648-128.838
		c-31.328-26.439-29.363-39.231-60.354-77.853c-16.336-20.358-52.742-68.494-52.742-68.494
		c-78.258-88.963-77.381-58.673-149.532-88.513c-13.677-5.656-31.875-2.794-42.792-9.537
		c-18.725-11.566-38.797-19.866-60.349-24.497c-4.298-0.924-7.845-11.026-8.175-15.772c-2.452-35.229-25.348-81.374-26.333-112.292
		c-1.866-58.567-2.691-33.863,5.328-92.319c1.726-12.578,1.455-27.501,4.785-39.549c0.784-2.837,2.875-36.625,2.934-37.626
		c1.13-19.444,4.794-23.249,5.565-29.036c1.7-12.766,7.311-8.991,6.035-18.829c-9.932-76.532-85.381-174.211-122.269-203.384
		c-9.36-7.403-10.099-13.877-15.716-14.644c-2.151-0.294-4.873-4.227-6.036-5.094c-14.597-10.876-14.788-12.308-36.16-24.286
		c-39.273-4.535-39.765,5.485-55.873,2.765c-5.547-0.937-10.58-3.728-16.211-4.313c-0.548-0.057-1.182-0.286-1.579-0.649
		c-3.327-3.043-7.939-3.578-11.582-6.017c-4.544-3.042-8.703-7.311-14.044-8.957c-5.81-1.791-11.7,0.1-16.967-4.061
		c-5.079-4.012-8.901,1.316-13.223,2.632c-15.831,4.821-27.337-10.19-53.15,17.735c-3.819,4.131-5.728,9.479-7.669,14.711
		c-0.355,0.956-0.246,2.203-1.224,2.785c-2.514,1.497-4.622,4.015-7.778,4.013c-6.863-0.003-12.132,4.404-18.046,6.763
		c-12.6,5.024-16.816,13.797-25.329,16.927c-6.336,2.329-5.586,9.454-11.869,8.39c-1.455-0.246-11.406,10.265-13.534,13.787
		c-7.774,12.867-10.312,6.104-20.646,29.217c-1.86,4.16-2.867,8.93-6.318,12.13c-3.661,3.396-5.193,8.328-8.971,11.556
		c-0.712,0.608-2.536,14.54-0.692,21.701c0.913,3.546-3.763,23.953,2.813,35.071c1.397,2.362,1.05,3.711-0.053,4.904
		c-4.78,5.173-8.189,2.881-6.353,9.382c2.785,9.861,0.537,8.257,2.814,34.544c0.822,9.493,1.396,18.96-1.66,28.22
		c-0.429,1.299-0.576,2.66-0.26,3.965c3.747,15.482-0.931,23.537-0.88,26.667c0.107,6.551,2.116,6.615,13.482,18.389
		c-0.202,0.253-0.404,0.506-0.605,0.76c-1.447-1.384-3.325-1.58-5.032-2.235c-1.808-0.694-2.863-2.885-5.345-3.054
		c0.158,3.646,7.144,6.698,9.189,10.852c5.774,11.728,13.122-2.559,16.962,11.013c0.693,2.45,1.603,4.77,1.33,7.34
		c-0.809,7.619-2.988,14.899-5.633,22.045c-8.347,22.556-3.17,15.054-9.362,36.039c-8.077,27.376-17.975,42.694,4.849,53.703
		c6.978,3.366,17.304,3.14,24.392,0.377c3.644-1.421,3.778-1.346,5.378,2.027c6.067,12.795-0.699,20.843,1.572,25.683
		c1.942,4.14,3.501,8.505,8.02,10.86c2.23,1.161,3.163,3.045,2.312,5.953c-3.524,12.045,7.678,23.434,14.189,26.67
		c18.477,9.182-3.676,59.409,65.67,53.41c1.001-0.087,33.989-2.846,35.017-2.832c3.744,0.048,2.431,7.174,0.272,10.091
		c-8.215,11.097-7.661,20.944-33.918,33.269c-20.854,9.788-46.996,13.467-55.422,17.873c-6.613,3.458-7.534-1.842-29.447-13.622
		c-66.292-35.639-151.456-24.503-165.231-23.601c-12.621,0.826-27.156,0.606-43.086,3.142
		c-109.341,17.412-38.578,4.059-154.115-15.666c-85.486-14.594-92.07,16.086-163.802-0.968c-3.746-0.891-2.051-0.198-2.257-27.854
		c-1.271-170.515,9.06-194.497,25.336-288.973c2.064-11.98,4.94-40.401,26.232-84.737c14.601-30.404,16.656-32.252,26.031-37.739
		c10.575-6.19,15.572-0.502,31.239-3.736c20.096-4.148,33.666-5.086,48.911-15.108c4.168-2.74,17.817-5.057,26.663-16.257
		c22.043-27.906,45.47-29.256,54.27-46.624c1.316-2.598,10.266-11.348,15.42-24.37c3.167-8.001,10.701-9.415,6.625-22.183
		c-4.177-13.087-21.822-8.337-24.29-7.311c-1.117,0.464-2.336,0.414-2.463-0.903c-0.556-5.785-3.571-11.127-2.272-17.316
		c2.696-12.849-6.39-14.036-6.644-21.479c-0.243-7.129-5.002-12.499-10.226-13.558c-1.7-0.344-2.953-1.371-3.984-2.674
		c-5.889-7.447-12.277-3.959-34.041-7.385c-6.762-1.065-13.469-2.952-20.419-2.163c-24.605,2.792-51.785-21.613-66.755-2.983
		c-26.919,33.5-77.373,120.305-77.929,121.327c-20.691,38.027-14.721,7.943-40.404,67.054c-1.307,3.008-1.898,6.204-2.165,9.513
		c-2.369,29.283-8.465,25.446-72.689,177.633C52.366,656.047,62.327,668.627,47.966,727.27c-2.119,8.653-4.38,17.27-7.739,25.563
		c-1.684,4.159-1.616,8.743-2.71,13.062c-0.432,1.706,4.549,15.12,15.021,21.813c16.195,10.35,23.716,10.082,42.609,20.168
		c106.315,56.755,141.65,64.434,198.941,83.405c129.295,42.813,234.353,36.775,255.051,37.356
		c90.581,2.541,83.85,55.454,118.23,114.94c19.767,34.204,19.181,32.522,17.768,35.993c-5.019,12.323-7.266,36.358-7.7,39.195
		c-4.416,28.902,7.163,70.307,9.363,74.557c3.919,7.574,5.797,15.866,7.84,23.997c7.874,31.342,25.153,59.993,26.694,92.908
		c2.277,48.644-2.051,96.977-1.147,145.581c2.964,159.334,0.904,148.375-2.086,178.905h814.578
		c-0.017-1.728,0.882-3.125,1.681-4.543c10.821-19.19,10.423-20.327,15.476-21.143c22.79-3.682,25.783-18.631,35.861-38.132
		c4.81-9.307,9.571-17.698,7.001-22.758c-2.025-3.988,1.498-4.311,13.291-20.453c112.265-153.668,95.767-148.363,137.821-228.15
		C1763.007,1263.112,1774.433,1210.364,1752.559,1175.213z M407.185,152.571c-1.041-0.34-1.268-0.885-1.206-1.476
		c0.066-0.624-0.245-1.649,0.905-1.554C407.647,149.604,408.07,151.613,407.185,152.571z M408.572,113.772
		c1.303-1.403,3.105-1.491,5.392-1.008C403.117,124,401.56,123.608,399.25,129.37c-0.262,0.654-0.503,1.411-1.704,1.829
		C394.535,114.939,396.223,127.07,408.572,113.772z M1555.461,1349.669c-10.005,39.368-28.578,78.365-49.537,112.934
		c-4.188,6.908-5.333,9.09-9.676,8.05c-7.382-1.768-12.352-3.054-17.889,1.22c-16.175,12.484-13.992,12.241-17.81,12.682
		c-9.604,1.106-8.755,8.408-22.051,30.073c-5.299,8.635,0.49,9.135-0.484,15.197c-2.1,13.07,6.733,15.636-1.697,21.654
		c-28.085,20.05-27.68,19.081-68.308,9.982c-10.6-2.374-81.772-17.999-82.32-28.865c-14.92-296.189,99.922-281.551,72.581-429.701
		c-5.609-30.386-12.999-33.537-10.172-42.366c11.323-35.371,5.47-30.731,24.999-28.508c6.023,0.685,7.283,5.562,20.939,11.468
		c15.456,6.684,81.075,60.726,97.019,70.2c11.226,6.67,14.095,16.06,32.646,37.371c44.832,51.502,72.424,49.086,75.309,77.612
		C1602.638,1264.531,1577.008,1264.884,1555.461,1349.669z"/>
</g>
</svg>
